<svg viewBox="0 0 400 400" xmlns="http://www.w3.org/2000/svg">
  <path d="M159.375 200a65.38 65.38 0 0 1-4.407 23.665C122.363 207.19 100 173.401 100 134.375a99.831 99.831 0 0 1 5.81-33.651 99.3 99.3 0 0 1 27.309 7.335 71.637 71.637 0 0 0-4.994 26.316c0 24.465 12.234 46.059 30.908 59.037.217 2.168.342 4.363.342 6.588zm-20.588-89.303c32.605 16.476 54.963 50.277 54.963 89.303 0 55.229-44.771 100-100 100v-28.125c39.696 0 71.875-32.18 71.875-71.875 0-24.471-12.239-46.073-30.92-59.053a66.372 66.372 0 0 1-.33-6.572c0-8.35 1.567-16.332 4.412-23.678zM241.91 232.033c11.779 23.613 36.158 39.842 64.34 39.842V300c-41.142 0-76.475-24.849-91.826-60.354a105.46 105.46 0 0 0 27.486-7.613zm-6.813-42.227a65.232 65.232 0 0 1-28.839 9.887c.153-51.008 38.493-93.025 87.936-98.967 3.122 8.734 5.042 18.036 5.611 27.701-33.291 2.961-60.053 28.607-64.708 61.379zm36.044-45.226a65.173 65.173 0 0 1 28.855-9.902c-.164 55.089-44.869 99.697-99.996 99.697-1.89 0-3.767-.058-5.631-.161a105.837 105.837 0 0 0 5.444-27.969c.062 0 .124.005.187.005 36.229 0 66.184-26.81 71.141-61.67z" fill="#1B1B1B" fill-rule="evenodd"/>
</svg>
