<?xml version="1.0" encoding="UTF-8"?>
<svg width="333px" height="359px" viewBox="0 0 333 359" version="1.1" xmlns="http://www.w3.org/2000/svg" xmlns:xlink="http://www.w3.org/1999/xlink">
    <!-- Generator: Sketch 55.2 (78181) - https://sketchapp.com -->
    <title>Rocket-Empty-State-Illustration</title>
    <desc>Created with Sketch.</desc>
    <defs>
        <path d="M143.966839,214.227792 C104.318362,255.683376 86.5051909,291.005076 90.5273263,320.192893 C96.5605295,363.974619 232.079049,378.5 281.013149,314.5 C329.947248,250.5 267.466779,238.598985 267.466779,198.049492 C267.466779,157.5 332.337873,147.978773 332.337873,89.5450508 C332.337873,31.1113281 261.925295,40.2163706 212.90975,40.2163706 C162.843733,40.2163706 149.92179,0 104.843733,0 C59.7656753,0 45.0524889,49.8535374 45.0524889,82.8826142 C45.0524889,161.088803 -22.9995415,175.840736 8.17185758,228.506345 C28.9527903,263.616751 70.2662669,254.92894 132.112287,202.442911 L143.966839,214.227792 Z" id="path-1"></path>
        <filter x="-2.7%" y="-2.5%" width="105.4%" height="105.0%" filterUnits="objectBoundingBox" id="filter-3">
            <feGaussianBlur stdDeviation="6" in="SourceAlpha" result="shadowBlurInner1"></feGaussianBlur>
            <feOffset dx="0" dy="6" in="shadowBlurInner1" result="shadowOffsetInner1"></feOffset>
            <feComposite in="shadowOffsetInner1" in2="SourceAlpha" operator="arithmetic" k2="-1" k3="1" result="shadowInnerInner1"></feComposite>
            <feColorMatrix values="0 0 0 0 0   0 0 0 0 0   0 0 0 0 0  0 0 0 0.25 0" type="matrix" in="shadowInnerInner1"></feColorMatrix>
        </filter>
        <path d="M143.966839,214.227792 C115.215563,257.34336 104.530915,290.396682 111.912895,313.387755 C122.985865,347.874365 229.297413,346.161488 267.466779,296.240482 C305.636146,246.319476 253.897304,238.598985 253.897304,198.049492 C253.897304,157.5 313.843733,136.30203 313.843733,86.3718274 C313.843733,36.4416244 244.690497,55.9168782 195.674951,55.9168782 C152.151129,55.9168782 146.627294,16.6541878 106.843733,16.6541878 C67.0601709,16.6541878 62.5783216,49.8535374 62.5783216,82.8826142 C62.5783216,161.088803 4.19317116,185.834391 24.1914483,219.622462 C37.5236331,242.147843 73.4972461,236.421326 132.112287,202.442911 L143.966839,214.227792 Z" id="path-4"></path>
        <filter x="-3.1%" y="-2.8%" width="106.1%" height="105.6%" filterUnits="objectBoundingBox" id="filter-5">
            <feGaussianBlur stdDeviation="6" in="SourceAlpha" result="shadowBlurInner1"></feGaussianBlur>
            <feOffset dx="0" dy="6" in="shadowBlurInner1" result="shadowOffsetInner1"></feOffset>
            <feComposite in="shadowOffsetInner1" in2="SourceAlpha" operator="arithmetic" k2="-1" k3="1" result="shadowInnerInner1"></feComposite>
            <feColorMatrix values="0 0 0 0 0   0 0 0 0 0   0 0 0 0 0  0 0 0 0.25 0" type="matrix" in="shadowInnerInner1"></feColorMatrix>
        </filter>
        <path d="M100.677233,175.444797 C85.3922194,213.320496 81.4407023,243.753883 88.822682,266.744956 C99.8956515,301.231567 188.976448,284.52867 217.316049,247.463832 C245.65565,210.398995 194.417706,205.698747 194.417706,155.174635 C194.417706,104.650523 254.554127,91.5285533 254.554127,51.8718274 C254.554127,12.2151015 192.119186,33.6281726 143.10364,33.6281726 C99.5798184,33.6281726 95.712416,0 68.9411831,0 C42.1699502,0 32.5541273,18.8427506 32.5541273,51.8718274 C32.5541273,130.078016 -11.8351202,139.821043 3.05412727,164.977157 C12.9802923,181.7479 41.5698105,181.30882 88.822682,163.659916 L100.677233,175.444797 Z" id="path-6"></path>
        <filter x="-3.5%" y="-3.2%" width="107.1%" height="106.3%" filterUnits="objectBoundingBox" id="filter-8">
            <feGaussianBlur stdDeviation="6" in="SourceAlpha" result="shadowBlurInner1"></feGaussianBlur>
            <feOffset dx="0" dy="6" in="shadowBlurInner1" result="shadowOffsetInner1"></feOffset>
            <feComposite in="shadowOffsetInner1" in2="SourceAlpha" operator="arithmetic" k2="-1" k3="1" result="shadowInnerInner1"></feComposite>
            <feColorMatrix values="0 0 0 0 0   0 0 0 0 0   0 0 0 0 0  0 0 0 0.25 0" type="matrix" in="shadowInnerInner1"></feColorMatrix>
        </filter>
        <linearGradient x1="50%" y1="0%" x2="50%" y2="100%" id="linearGradient-9">
            <stop stop-color="#C1C1C1" stop-opacity="0" offset="0%"></stop>
            <stop stop-color="#5C5C5C" offset="100%"></stop>
        </linearGradient>
        <linearGradient x1="50%" y1="0%" x2="50%" y2="100%" id="linearGradient-10">
            <stop stop-color="#5C5C5C" offset="0%"></stop>
            <stop stop-color="#1B1B1B" stop-opacity="0" offset="100%"></stop>
        </linearGradient>
        <linearGradient x1="50%" y1="0%" x2="50%" y2="100%" id="linearGradient-11">
            <stop stop-color="#C1C1C1" stop-opacity="0" offset="0%"></stop>
            <stop stop-color="#5C5C5C" offset="100%"></stop>
        </linearGradient>
        <linearGradient x1="50%" y1="0%" x2="50%" y2="100%" id="linearGradient-12">
            <stop stop-color="#5C5C5C" offset="0%"></stop>
            <stop stop-color="#1B1B1B" stop-opacity="0" offset="100%"></stop>
        </linearGradient>
        <linearGradient x1="50%" y1="0%" x2="50%" y2="100%" id="linearGradient-13">
            <stop stop-color="#C1C1C1" stop-opacity="0" offset="0%"></stop>
            <stop stop-color="#5C5C5C" offset="100%"></stop>
        </linearGradient>
        <linearGradient x1="50%" y1="0%" x2="50%" y2="100%" id="linearGradient-14">
            <stop stop-color="#5C5C5C" offset="0%"></stop>
            <stop stop-color="#1B1B1B" stop-opacity="0" offset="100%"></stop>
        </linearGradient>
        <linearGradient x1="50%" y1="0%" x2="50%" y2="100%" id="linearGradient-15">
            <stop stop-color="#C1C1C1" stop-opacity="0" offset="0%"></stop>
            <stop stop-color="#5C5C5C" offset="100%"></stop>
        </linearGradient>
        <filter x="-71.2%" y="-107.0%" width="242.4%" height="314.0%" filterUnits="objectBoundingBox" id="filter-16">
            <feOffset dx="0" dy="8" in="SourceAlpha" result="shadowOffsetOuter1"></feOffset>
            <feGaussianBlur stdDeviation="8" in="shadowOffsetOuter1" result="shadowBlurOuter1"></feGaussianBlur>
            <feColorMatrix values="0 0 0 0 0   0 0 0 0 0   0 0 0 0 0  0 0 0 0.25 0" type="matrix" in="shadowBlurOuter1" result="shadowMatrixOuter1"></feColorMatrix>
            <feMerge>
                <feMergeNode in="shadowMatrixOuter1"></feMergeNode>
                <feMergeNode in="SourceGraphic"></feMergeNode>
            </feMerge>
        </filter>
        <circle id="path-17" cx="21.5" cy="21.5" r="21.5"></circle>
        <circle id="path-19" cx="10" cy="10" r="10"></circle>
        <filter x="-120.0%" y="-68.5%" width="340.0%" height="232.4%" filterUnits="objectBoundingBox" id="filter-21">
            <feOffset dx="0" dy="12" in="SourceAlpha" result="shadowOffsetOuter1"></feOffset>
            <feGaussianBlur stdDeviation="12" in="shadowOffsetOuter1" result="shadowBlurOuter1"></feGaussianBlur>
            <feColorMatrix values="0 0 0 0 0   0 0 0 0 0   0 0 0 0 0  0 0 0 0.35 0" type="matrix" in="shadowBlurOuter1" result="shadowMatrixOuter1"></feColorMatrix>
            <feMerge>
                <feMergeNode in="shadowMatrixOuter1"></feMergeNode>
                <feMergeNode in="SourceGraphic"></feMergeNode>
            </feMerge>
        </filter>
    </defs>
    <g id="UI-Design" stroke="none" stroke-width="1" fill="none" fill-rule="evenodd">
        <g id="Team-List-View-Empty-Sate" transform="translate(-20.000000, -145.000000)">
            <g id="Rocket-Empty-State-Illustration" transform="translate(20.156267, 145.500000)">
                <g id="Space" transform="translate(-0.000000, -0.000000)">
                    <mask id="mask-2" fill="white">
                        <use xlink:href="#path-1"></use>
                    </mask>
                    <g id="Path-3">
                        <use fill="#F7F7F7" fill-rule="evenodd" xlink:href="#path-1"></use>
                        <use fill="black" fill-opacity="1" filter="url(#filter-3)" xlink:href="#path-1"></use>
                    </g>
                    <g id="Path-3-Copy" mask="url(#mask-2)">
                        <use fill="#C1C1C1" fill-rule="evenodd" xlink:href="#path-4"></use>
                        <use fill="black" fill-opacity="1" filter="url(#filter-5)" xlink:href="#path-4"></use>
                    </g>
                    <g id="Inner" mask="url(#mask-2)">
                        <g transform="translate(43.289605, 38.782995)">
                            <mask id="mask-7" fill="white">
                                <use xlink:href="#path-6"></use>
                            </mask>
                            <g id="Path-3-Copy-2" stroke="none" fill="none">
                                <use fill="#5C5C5C" fill-rule="evenodd" xlink:href="#path-6"></use>
                                <use fill="black" fill-opacity="1" filter="url(#filter-8)" xlink:href="#path-6"></use>
                            </g>
                            <rect id="Rectangle-Copy-33" stroke="none" fill="url(#linearGradient-9)" fill-rule="evenodd" opacity="0.5" mask="url(#mask-7)" transform="translate(197.608104, 222.319296) rotate(45.000000) translate(-197.608104, -222.319296) " x="196.608104" y="197.819296" width="2" height="49" rx="1"></rect>
                            <rect id="Rectangle-Copy-37" stroke="none" fill="url(#linearGradient-10)" fill-rule="evenodd" opacity="0.5" mask="url(#mask-7)" transform="translate(148.647949, 226.279451) rotate(45.000000) translate(-148.647949, -226.279451) " x="147.647949" y="157.279451" width="2" height="138" rx="1"></rect>
                            <rect id="Rectangle-Copy-38" stroke="none" fill="url(#linearGradient-11)" fill-rule="evenodd" opacity="0.5" mask="url(#mask-7)" transform="translate(166.427909, 143.499491) rotate(45.000000) translate(-166.427909, -143.499491) " x="165.427909" y="32.9994907" width="2" height="221" rx="1"></rect>
                            <rect id="Rectangle" stroke="none" fill="url(#linearGradient-12)" fill-rule="evenodd" opacity="0.5" mask="url(#mask-7)" transform="translate(146.479947, 123.447452) rotate(45.000000) translate(-146.479947, -123.447452) " x="145.479947" y="55.4474525" width="2" height="136" rx="1"></rect>
                            <rect id="Rectangle-Copy-34" stroke="none" fill="url(#linearGradient-13)" fill-rule="evenodd" opacity="0.5" mask="url(#mask-7)" transform="translate(148.691365, 97.236035) rotate(45.000000) translate(-148.691365, -97.236035) " x="147.691365" y="9.73603469" width="2" height="175" rx="1"></rect>
                            <rect id="Rectangle-Copy-35" stroke="none" fill="url(#linearGradient-14)" fill-rule="evenodd" opacity="0.5" mask="url(#mask-7)" transform="translate(63.540607, 127.386792) rotate(45.000000) translate(-63.540607, -127.386792) " x="62.5406075" y="60.8867923" width="2" height="133" rx="1"></rect>
                            <rect id="Rectangle-Copy-36" stroke="none" fill="url(#linearGradient-15)" fill-rule="evenodd" opacity="0.5" mask="url(#mask-7)" transform="translate(58.278937, 58.648463) rotate(45.000000) translate(-58.278937, -58.648463) " x="57.2789372" y="18.6484626" width="2" height="80" rx="1"></rect>
                        </g>
                    </g>
                </g>
                <g id="Dark-Stars" transform="translate(68.843733, 59.500000)" fill="#1B1B1B" opacity="0.5">
                    <path d="M157,24 C158.5388,24.9232799 160.4612,24.9232799 162,24 L162,24 C161.07672,25.5387998 161.07672,27.4612002 162,29 L162,29 C160.4612,28.0767201 158.5388,28.0767201 157,29 L157,29 C157.92328,27.4612002 157.92328,25.5387998 157,24 L157,24 Z" id="Rectangle" transform="translate(159.500000, 26.500000) rotate(45.000000) translate(-159.500000, -26.500000) "></path>
                    <path d="M197,34 C198.5388,34.9232799 200.4612,34.9232799 202,34 L202,34 C201.07672,35.5387998 201.07672,37.4612002 202,39 L202,39 C200.4612,38.0767201 198.5388,38.0767201 197,39 L197,39 C197.92328,37.4612002 197.92328,35.5387998 197,34 L197,34 Z" id="Rectangle-Copy-9" transform="translate(199.500000, 36.500000) rotate(45.000000) translate(-199.500000, -36.500000) "></path>
                    <path d="M25,2 C26.5387998,2.92327988 28.4612002,2.92327988 30,2 L30,2 C29.0767201,3.53879981 29.0767201,5.46120019 30,7 L30,7 C28.4612002,6.07672012 26.5387998,6.07672012 25,7 L25,7 C25.9232799,5.46120019 25.9232799,3.53879981 25,2 L25,2 Z" id="Rectangle-Copy-6" transform="translate(27.500000, 4.500000) rotate(45.000000) translate(-27.500000, -4.500000) "></path>
                    <path d="M2,121 C3.53879981,121.92328 5.46120019,121.92328 7,121 L7,121 C6.07672012,122.5388 6.07672012,124.4612 7,126 L7,126 C5.46120019,125.07672 3.53879981,125.07672 2,126 L2,126 C2.92327988,124.4612 2.92327988,122.5388 2,121 L2,121 Z" id="Rectangle-Copy-7" transform="translate(4.500000, 123.500000) rotate(45.000000) translate(-4.500000, -123.500000) "></path>
                    <path d="M12,91 C12.9232799,91.5539679 14.0767201,91.5539679 15,91 L15,91 C14.4460321,91.9232799 14.4460321,93.0767201 15,94 L15,94 C14.0767201,93.4460321 12.9232799,93.4460321 12,94 L12,94 C12.5539679,93.0767201 12.5539679,91.9232799 12,91 L12,91 Z" id="Rectangle-Copy-32" transform="translate(13.500000, 92.500000) rotate(45.000000) translate(-13.500000, -92.500000) "></path>
                    <path d="M22,131 C22.6155199,131.369312 23.3844801,131.369312 24,131 L24,131 C23.630688,131.61552 23.630688,132.38448 24,133 L24,133 C23.3844801,132.630688 22.6155199,132.630688 22,133 L22,133 C22.369312,132.38448 22.369312,131.61552 22,131 L22,131 Z" id="Rectangle-Copy-8" transform="translate(23.000000, 132.000000) rotate(45.000000) translate(-23.000000, -132.000000) "></path>
                    <path d="M82,201 C82.9232799,201.553968 84.0767201,201.553968 85,201 L85,201 C84.4460321,201.92328 84.4460321,203.07672 85,204 L85,204 C84.0767201,203.446032 82.9232799,203.446032 82,204 L82,204 C82.5539679,203.07672 82.5539679,201.92328 82,201 L82,201 Z" id="Rectangle-Copy-10" transform="translate(83.500000, 202.500000) rotate(45.000000) translate(-83.500000, -202.500000) "></path>
                    <path d="M82,241 C83.5387998,241.92328 85.4612002,241.92328 87,241 L87,241 C86.0767201,242.5388 86.0767201,244.4612 87,246 L87,246 C85.4612002,245.07672 83.5387998,245.07672 82,246 L82,246 C82.9232799,244.4612 82.9232799,242.5388 82,241 L82,241 Z" id="Rectangle-Copy-11" transform="translate(84.500000, 243.500000) rotate(45.000000) translate(-84.500000, -243.500000) "></path>
                    <path d="M102,251 C103.5388,251.92328 105.4612,251.92328 107,251 L107,251 C106.07672,252.5388 106.07672,254.4612 107,256 L107,256 C105.4612,255.07672 103.5388,255.07672 102,256 L102,256 C102.92328,254.4612 102.92328,252.5388 102,251 L102,251 Z" id="Rectangle-Copy-12" transform="translate(104.500000, 253.500000) rotate(45.000000) translate(-104.500000, -253.500000) "></path>
                    <path d="M142,131 C143.5388,131.92328 145.4612,131.92328 147,131 L147,131 C146.07672,132.5388 146.07672,134.4612 147,136 L147,136 C145.4612,135.07672 143.5388,135.07672 142,136 L142,136 C142.92328,134.4612 142.92328,132.5388 142,131 L142,131 Z" id="Rectangle-Copy-13" transform="translate(144.500000, 133.500000) rotate(45.000000) translate(-144.500000, -133.500000) "></path>
                    <path d="M162,171 C163.5388,171.92328 165.4612,171.92328 167,171 L167,171 C166.07672,172.5388 166.07672,174.4612 167,176 L167,176 C165.4612,175.07672 163.5388,175.07672 162,176 L162,176 C162.92328,174.4612 162.92328,172.5388 162,171 L162,171 Z" id="Rectangle-Copy-14" transform="translate(164.500000, 173.500000) rotate(45.000000) translate(-164.500000, -173.500000) "></path>
                </g>
                <g id="Light-Stars" transform="translate(54.843733, 61.500000)" fill="#F7F7F7" opacity="0.5">
                    <path d="M201,22 C202.23104,22.7386239 203.76896,22.7386239 205,22 L205,22 C204.261376,23.2310398 204.261376,24.7689602 205,26 L205,26 C203.76896,25.2613761 202.23104,25.2613761 201,26 L201,26 C201.738624,24.7689602 201.738624,23.2310398 201,22 L201,22 Z" id="Rectangle" transform="translate(203.000000, 24.000000) rotate(45.000000) translate(-203.000000, -24.000000) "></path>
                    <path d="M211,52 C211.92328,52.5539679 213.07672,52.5539679 214,52 L214,52 C213.446032,52.9232799 213.446032,54.0767201 214,55 L214,55 C213.07672,54.4460321 211.92328,54.4460321 211,55 L211,55 C211.553968,54.0767201 211.553968,52.9232799 211,52 L211,52 Z" id="Rectangle-Copy-15" transform="translate(212.500000, 53.500000) rotate(45.000000) translate(-212.500000, -53.500000) "></path>
                    <path d="M181,72 C181.61552,72.369312 182.38448,72.369312 183,72 L183,72 C182.630688,72.6155199 182.630688,73.3844801 183,74 L183,74 C182.38448,73.630688 181.61552,73.630688 181,74 L181,74 C181.369312,73.3844801 181.369312,72.6155199 181,72 L181,72 Z" id="Rectangle-Copy-16" transform="translate(182.000000, 73.000000) rotate(45.000000) translate(-182.000000, -73.000000) "></path>
                    <path d="M191,42 C192.5388,42.9232799 194.4612,42.9232799 196,42 L196,42 C195.07672,43.5387998 195.07672,45.4612002 196,47 L196,47 C194.4612,46.0767201 192.5388,46.0767201 191,47 L191,47 C191.92328,45.4612002 191.92328,43.5387998 191,42 L191,42 Z" id="Rectangle-Copy-17" transform="translate(193.500000, 44.500000) rotate(45.000000) translate(-193.500000, -44.500000) "></path>
                    <path d="M71,42 C71.6155199,42.369312 72.3844801,42.369312 73,42 L73,42 C72.630688,42.6155199 72.630688,43.3844801 73,44 L73,44 C72.3844801,43.630688 71.6155199,43.630688 71,44 L71,44 C71.369312,43.3844801 71.369312,42.6155199 71,42 L71,42 Z" id="Rectangle-Copy-18" transform="translate(72.000000, 43.000000) rotate(45.000000) translate(-72.000000, -43.000000) "></path>
                    <path d="M61,2 C62.5387998,2.92327988 64.4612002,2.92327988 66,2 L66,2 C65.0767201,3.53879981 65.0767201,5.46120019 66,7 L66,7 C64.4612002,6.07672012 62.5387998,6.07672012 61,7 L61,7 C61.9232799,5.46120019 61.9232799,3.53879981 61,2 L61,2 Z" id="Rectangle-Copy-19" transform="translate(63.500000, 4.500000) rotate(45.000000) translate(-63.500000, -4.500000) "></path>
                    <path d="M41,22 C42.2310398,22.7386239 43.7689602,22.7386239 45,22 L45,22 C44.2613761,23.2310398 44.2613761,24.7689602 45,26 L45,26 C43.7689602,25.2613761 42.2310398,25.2613761 41,26 L41,26 C41.7386239,24.7689602 41.7386239,23.2310398 41,22 L41,22 Z" id="Rectangle-Copy-20" transform="translate(43.000000, 24.000000) rotate(45.000000) translate(-43.000000, -24.000000) "></path>
                    <path d="M41,102 C42.5387998,102.92328 44.4612002,102.92328 46,102 L46,102 C45.0767201,103.5388 45.0767201,105.4612 46,107 L46,107 C44.4612002,106.07672 42.5387998,106.07672 41,107 L41,107 C41.9232799,105.4612 41.9232799,103.5388 41,102 L41,102 Z" id="Rectangle-Copy-21" transform="translate(43.500000, 104.500000) rotate(45.000000) translate(-43.500000, -104.500000) "></path>
                    <path d="M1,132 C1.92327988,132.553968 3.07672012,132.553968 4,132 L4,132 C3.44603207,132.92328 3.44603207,134.07672 4,135 L4,135 C3.07672012,134.446032 1.92327988,134.446032 1,135 L1,135 C1.55396793,134.07672 1.55396793,132.92328 1,132 L1,132 Z" id="Rectangle-Copy-22" transform="translate(2.500000, 133.500000) rotate(45.000000) translate(-2.500000, -133.500000) "></path>
                    <path d="M21,142 C22.5387998,142.92328 24.4612002,142.92328 26,142 L26,142 C25.0767201,143.5388 25.0767201,145.4612 26,147 L26,147 C24.4612002,146.07672 22.5387998,146.07672 21,147 L21,147 C21.9232799,145.4612 21.9232799,143.5388 21,142 L21,142 Z" id="Rectangle-Copy-23" transform="translate(23.500000, 144.500000) rotate(45.000000) translate(-23.500000, -144.500000) "></path>
                    <path d="M81,82 C81.9232799,82.5539679 83.0767201,82.5539679 84,82 L84,82 C83.4460321,82.9232799 83.4460321,84.0767201 84,85 L84,85 C83.0767201,84.4460321 81.9232799,84.4460321 81,85 L81,85 C81.5539679,84.0767201 81.5539679,82.9232799 81,82 L81,82 Z" id="Rectangle-Copy-24" transform="translate(82.500000, 83.500000) rotate(45.000000) translate(-82.500000, -83.500000) "></path>
                    <path d="M101,222 C102.5388,222.92328 104.4612,222.92328 106,222 L106,222 C105.07672,223.5388 105.07672,225.4612 106,227 L106,227 C104.4612,226.07672 102.5388,226.07672 101,227 L101,227 C101.92328,225.4612 101.92328,223.5388 101,222 L101,222 Z" id="Rectangle-Copy-25" transform="translate(103.500000, 224.500000) rotate(45.000000) translate(-103.500000, -224.500000) "></path>
                    <path d="M131,232 C132.23104,232.738624 133.76896,232.738624 135,232 L135,232 C134.261376,233.23104 134.261376,234.76896 135,236 L135,236 C133.76896,235.261376 132.23104,235.261376 131,236 L131,236 C131.738624,234.76896 131.738624,233.23104 131,232 L131,232 Z" id="Rectangle-Copy-26" transform="translate(133.000000, 234.000000) rotate(45.000000) translate(-133.000000, -234.000000) "></path>
                    <path d="M81,192 C81.6155199,192.369312 82.3844801,192.369312 83,192 L83,192 C82.630688,192.61552 82.630688,193.38448 83,194 L83,194 C82.3844801,193.630688 81.6155199,193.630688 81,194 L81,194 C81.369312,193.38448 81.369312,192.61552 81,192 L81,192 Z" id="Rectangle-Copy-27" transform="translate(82.000000, 193.000000) rotate(45.000000) translate(-82.000000, -193.000000) "></path>
                    <path d="M191,212 C191.92328,212.553968 193.07672,212.553968 194,212 L194,212 C193.446032,212.92328 193.446032,214.07672 194,215 L194,215 C193.07672,214.446032 191.92328,214.446032 191,215 L191,215 C191.553968,214.07672 191.553968,212.92328 191,212 L191,212 Z" id="Rectangle-Copy-28" transform="translate(192.500000, 213.500000) rotate(45.000000) translate(-192.500000, -213.500000) "></path>
                    <path d="M181,192 C182.5388,192.92328 184.4612,192.92328 186,192 L186,192 C185.07672,193.5388 185.07672,195.4612 186,197 L186,197 C184.4612,196.07672 182.5388,196.07672 181,197 L181,197 C181.92328,195.4612 181.92328,193.5388 181,192 L181,192 Z" id="Rectangle-Copy-29" transform="translate(183.500000, 194.500000) rotate(45.000000) translate(-183.500000, -194.500000) "></path>
                    <path d="M141,162 C142.23104,162.738624 143.76896,162.738624 145,162 L145,162 C144.261376,163.23104 144.261376,164.76896 145,166 L145,166 C143.76896,165.261376 142.23104,165.261376 141,166 L141,166 C141.738624,164.76896 141.738624,163.23104 141,162 L141,162 Z" id="Rectangle-Copy-30" transform="translate(143.000000, 164.000000) rotate(45.000000) translate(-143.000000, -164.000000) "></path>
                    <path d="M161,142 C161.61552,142.369312 162.38448,142.369312 163,142 L163,142 C162.630688,142.61552 162.630688,143.38448 163,144 L163,144 C162.38448,143.630688 161.61552,143.630688 161,144 L161,144 C161.369312,143.38448 161.369312,142.61552 161,142 L161,142 Z" id="Rectangle-Copy-31" transform="translate(162.000000, 143.000000) rotate(45.000000) translate(-162.000000, -143.000000) "></path>
                </g>
                <g id="Planet" filter="url(#filter-16)" transform="translate(142.843733, 78.500000)">
                    <g id="Globe" transform="translate(12.000000, 0.000000)">
                        <mask id="mask-18" fill="white">
                            <use xlink:href="#path-17"></use>
                        </mask>
                        <use id="Oval" fill="#C1C1C1" opacity="0.5" xlink:href="#path-17"></use>
                        <circle id="Oval" fill="#F7F7F7" opacity="0.5" mask="url(#mask-18)" cx="26.5" cy="12.5" r="3.5"></circle>
                        <circle id="Oval-Copy-3" fill="#F7F7F7" opacity="0.5" mask="url(#mask-18)" cx="13.5" cy="31.5" r="2.5"></circle>
                        <path d="M0,15 C4.69140625,15 7.93359375,15 9.7265625,15 C12.4160156,15 9.9921875,19 13.7265625,19 C17.4609375,19 31.2285156,19 33,19 C34.7714844,19 32.6416016,17 35,17 C36.5722656,17 39.2389323,17 43,17 L43,21.6103516 L0.066017178,21.6103516 L0,15 Z" id="Path-4" fill="#F7F7F7" opacity="0.5" mask="url(#mask-18)"></path>
                        <path d="M0,23 L17.5,23 C17.7761424,23 18,23.2238576 18,23.5 C18,23.7761424 17.7761424,24 17.5,24 L0,24 L0,23 Z" id="Rectangle" fill="#F7F7F7" opacity="0.5" mask="url(#mask-18)"></path>
                        <rect id="Rectangle-Copy" fill="#F7F7F7" opacity="0.5" mask="url(#mask-18)" x="19" y="23" width="4" height="1" rx="0.5"></rect>
                        <rect id="Rectangle-Copy-3" fill="#F7F7F7" opacity="0.5" mask="url(#mask-18)" x="4" y="31" width="4" height="1" rx="0.5"></rect>
                        <rect id="Rectangle-Copy-2" fill="#F7F7F7" opacity="0.5" mask="url(#mask-18)" x="24" y="23" width="1" height="1" rx="0.5"></rect>
                        <rect id="Rectangle-Copy-5" fill="#F7F7F7" opacity="0.5" mask="url(#mask-18)" x="9" y="31" width="1" height="1" rx="0.5"></rect>
                        <path d="M43,29.1015625 C40.5826823,29.1015625 38.6350911,29.1015625 37.1572266,29.1015625 C34.9404297,29.1015625 35.8300781,31.675293 34.5834961,31.675293 C31.260498,31.675293 27.9375,31.675293 24.614502,31.675293 C24.2751219,31.675293 24,31.9504149 24,32.2897949 C24,32.629175 24.2751219,32.9042969 24.614502,32.9042969 L43,32.9042969 L43,29.1015625 Z" id="Path-5" fill-opacity="0.5" fill="#F7F7F7" mask="url(#mask-18)"></path>
                    </g>
                    <path d="M53.6880473,26.674816 C61.1962181,25.5750129 66,23.8895049 66,22 C66,20.1468061 61.3790748,18.489844 54.1178949,17.3892357 C48.3953099,16.5218388 41.0328304,16 33,16 C24.7239209,16 17.1594063,16.5539218 11.3667725,17.4689805 C4.40299749,18.5690436 0,20.1910332 0,22 C0,23.8275016 4.49368612,25.4641746 11.58163,26.5646686" id="Oval" stroke="#F7F7F7" stroke-width="2" opacity="0.349999994" stroke-linecap="round" transform="translate(33.000000, 21.337408) rotate(155.000000) translate(-33.000000, -21.337408) "></path>
                </g>
                <g id="Globe-2" transform="translate(87.843733, 121.500000)">
                    <mask id="mask-20" fill="white">
                        <use xlink:href="#path-19"></use>
                    </mask>
                    <use id="Oval" fill="#C1C1C1" opacity="0.5" xlink:href="#path-19"></use>
                    <circle id="Oval-Copy-3" fill="#1B1B1B" opacity="0.5" mask="url(#mask-20)" cx="5" cy="6" r="2"></circle>
                    <circle id="Oval-Copy-5" fill="#1B1B1B" opacity="0.5" mask="url(#mask-20)" cx="9" cy="4" r="1"></circle>
                    <circle id="Oval" fill="#1B1B1B" opacity="0.5" mask="url(#mask-20)" cx="14.5" cy="13.5" r="2.5"></circle>
                    <circle id="Oval-Copy-4" fill="#1B1B1B" opacity="0.5" mask="url(#mask-20)" cx="9.5" cy="16.5" r="1.5"></circle>
                </g>
                <path d="M221.85455,258.633617 C216.467168,259.469673 212.343733,264.128296 212.343733,269.75 C212.343733,275.963203 217.380529,281 223.593733,281 C229.215436,281 233.87406,276.876565 234.710116,271.489183 C234.798237,272.146916 234.843733,272.818145 234.843733,273.5 C234.843733,281.784271 228.128004,288.5 219.843733,288.5 C211.559461,288.5 204.843733,281.784271 204.843733,273.5 C204.843733,265.215729 211.559461,258.5 219.843733,258.5 C220.525588,258.5 221.196817,258.545496 221.85455,258.633617 Z" id="Moon" fill="#C1C1C1" opacity="0.5"></path>
                <path d="M107.314321,100.237449 C107.314321,100.551689 107.255441,100.852 107.14841,101.128367 C105.920928,100.508132 105.079027,99.2360753 105.079027,97.7668612 C105.079027,97.3223247 105.156316,96.8959341 105.297756,96.5 C105.658678,96.5434071 106.003789,96.6380141 106.32586,96.7761412 C106.204975,97.08304 106.13785,97.4170071 106.13785,97.7668612 C106.13785,98.6878965 106.598424,99.5008471 107.301446,99.9894306 C107.309615,100.071049 107.314321,100.153685 107.314321,100.237449 Z M106.539243,96.8754541 C107.766726,97.4957271 108.608438,98.7682353 108.608438,100.237449 C108.608438,102.316659 106.922942,104.002155 104.843733,104.002155 L104.843733,102.943332 C106.33817,102.943332 107.549615,101.731849 107.549615,100.237449 C107.549615,99.3161882 107.088853,98.5029365 106.385568,98.0142776 C106.377474,97.9328847 106.373144,97.8504 106.373144,97.7668612 C106.373144,97.4525082 106.432137,97.1520094 106.539243,96.8754541 Z M110.421521,101.443398 C110.864966,102.332358 111.782763,102.943332 112.843733,102.943332 L112.843733,104.002155 C111.294857,104.002155 109.964674,103.066664 109.386754,101.730005 C109.749408,101.6808 110.096514,101.583068 110.421521,101.443398 Z M110.165031,99.8536753 C109.845295,100.056593 109.47609,100.188207 109.079328,100.225892 C109.085088,98.3055906 110.528476,96.7237741 112.38986,96.5000753 C112.507394,96.8288847 112.579676,97.1790776 112.601097,97.5429365 C111.347789,97.6544094 110.340278,98.6199059 110.165031,99.8536753 Z M111.521982,98.1510494 C111.841831,97.9478682 112.211149,97.8158776 112.608288,97.7782682 C112.602114,99.8522071 110.919102,101.531567 108.843733,101.531567 C108.77258,101.531567 108.701916,101.529384 108.631742,101.525506 C108.74506,101.192104 108.81546,100.838974 108.836693,100.472555 C108.839027,100.472555 108.841361,100.472744 108.843733,100.472744 C110.207648,100.472744 111.335366,99.4634259 111.521982,98.1510494 Z" id="Modus-Mark-Black" fill="#1B1B1B" fill-rule="nonzero" opacity="0.5"></path>
                <g id="Rocket" filter="url(#filter-21)" transform="translate(153.512780, 192.896970) rotate(45.000000) translate(-153.512780, -192.896970) translate(123.512780, 138.896970)">
                    <path d="M41,108 C41,95.8497355 37.3333333,84.8497355 30,75 C22.6666667,84.8497355 19,95.8497355 19,108 C19,108 41,108 41,108 Z" id="Oval-Copy-7" fill="#FF5C5D" opacity="0.15" transform="translate(30.000000, 91.500000) scale(1, -1) translate(-30.000000, -91.500000) "></path>
                    <path d="M39,99 C39,90.163444 36,82.163444 30,75 C24,82.163444 21,90.163444 21,99 C21,99 39,99 39,99 Z" id="Oval-Copy-6" fill="#FF5C5D" opacity="0.25" transform="translate(30.000000, 87.000000) scale(1, -1) translate(-30.000000, -87.000000) "></path>
                    <path d="M37.5,90 C37.5,84.4771525 35,79.4771525 30,75 C25,79.4771525 22.5,84.4771525 22.5,90 C22.5,90 37.5,90 37.5,90 Z" id="Oval-Copy" fill="#FF5C5D" transform="translate(30.000000, 82.500000) scale(1, -1) translate(-30.000000, -82.500000) "></path>
                    <path d="M53.80567,75.770581 C53.8050654,75.7695771 53.8049814,75.7694384 53.803292,75.7666475 C53.798121,75.7581324 53.798121,75.7581324 53.7886499,75.7426892 C53.7632699,75.7015835 53.7632699,75.7015835 53.7207885,75.6341471 C53.6413472,75.5087333 53.545091,75.3613725 53.4321557,75.1939073 C53.1045654,74.7081426 52.7117434,74.1637876 52.2548489,73.575577 C50.9439064,71.8878562 49.3891923,70.1981107 47.6016241,68.6233243 C42.5334229,64.1584122 36.6509084,61.497573 30.0005474,61.4999999 C23.3507483,61.5024266 17.4685725,64.1636489 12.4005602,68.6258144 C10.6122716,70.2003251 9.05693873,71.8896289 7.74547605,73.576814 C7.28840418,74.1648329 6.89543032,74.7089979 6.5677139,75.1945834 C6.37579417,75.4789555 6.25110818,75.6756454 6.19472444,75.7699208 L4.79905719,78.1035195 L3.56950874,75.6782812 C3.52777893,75.5959708 3.45247726,75.4447167 3.34837747,75.2313135 C3.17657172,74.8791138 2.98557514,74.4784612 2.78015461,74.0361181 C2.19388779,72.773678 1.60777487,71.4267511 1.05982743,70.0485881 C-0.539917759,66.0250095 -1.5,62.5682464 -1.5,59.9941155 C-1.5,54.117868 8.68766923,46.4791144 29.3291796,36.1583592 L30,35.822949 L30.6708204,36.1583592 C51.3123308,46.4791144 61.5,54.117868 61.5,59.9941155 C61.5,62.5682464 60.5399178,66.0250095 58.9401726,70.0485881 C58.3922251,71.4267511 57.8061122,72.773678 57.2198454,74.0361181 C57.0144249,74.4784612 56.8234283,74.8791138 56.6516225,75.2313135 C56.5475227,75.4447167 56.4722211,75.5959708 56.4304913,75.6782812 L55.2004404,78.1045106 L53.80567,75.770581 Z" id="Oval" stroke="#F7F7F7" stroke-width="3" fill="#5C5C5C"></path>
                    <path d="M43.9996081,76.5 L43.1943797,76.5 C43.1942917,76.5 43.1942917,76.5 43.1941536,76.5 C43.193802,76.5 43.193802,76.5 43.1932503,76.5 C43.1918473,76.5 43.1918473,76.5 43.1896484,76.5 C43.1840614,76.5 43.1840614,76.5 43.1753287,76.5 C43.1531822,76.5 43.1531822,76.5 43.1187546,76.5 C43.0317794,76.5 43.0317794,76.5 42.8980953,76.5 C42.5630799,76.5 42.5630799,76.5 42.0605567,76.5 C40.8235765,76.5 40.8235765,76.5 39.0711879,76.5 C34.9479207,76.5 34.9479207,76.5 30,76.5 C25.0520793,76.5 25.0520793,76.5 20.9288121,76.5 C17.6301983,76.5 17.6301983,76.5 16.8055448,76.5 L16.0003919,76.5 L15.5554244,75.8289746 C9.19097743,66.2311826 6,55.9398047 6,44.988231 C6,27.9715791 13.6974076,12.5807901 28.9995225,-1.11760676 L30,-2.01323049 L31.0004775,-1.11760676 C46.3025924,12.5807901 54,27.9715791 54,44.988231 C54,55.9398047 50.8090226,66.2311826 44.4445756,75.8289746 L43.9996081,76.5 Z" id="Oval-Copy-2" stroke="#F7F7F7" stroke-width="3" fill="#FF5C5D"></path>
                    <circle id="Oval" stroke="#F7F7F7" stroke-width="2" fill="#5C5C5C" cx="30" cy="37.5" r="10"></circle>
                </g>
            </g>
        </g>
    </g>
</svg>